<svg width="24" height="25" viewBox="0 0 24 25" fill="none" xmlns="http://www.w3.org/2000/svg">
<path d="M20.5 3.50068H7.5C7.224 3.50068 7 3.72468 7 4.00068C7 4.27668 7.224 4.50068 7.5 4.50068H20V17.0007C20 17.2767 20.224 17.5007 20.5 17.5007C20.776 17.5007 21 17.2767 21 17.0007V4.00068C21 3.72468 20.776 3.50068 20.5 3.50068Z" fill="#C9C3AF"/>
<path d="M20.5 3.50068H7.5C7.224 3.50068 7 3.72468 7 4.00068C7 4.27668 7.224 4.50068 7.5 4.50068H20V17.0007C20 17.2767 20.224 17.5007 20.5 17.5007C20.776 17.5007 21 17.2767 21 17.0007V4.00068C21 3.72468 20.776 3.50068 20.5 3.50068Z" stroke="#C9C3AF"/>
<path d="M20.5002 3.5007C20.3722 3.5007 20.2442 3.5497 20.1462 3.6467L3.14625 20.6467C2.95125 20.8417 2.95125 21.1587 3.14625 21.3538C3.34125 21.5487 3.65825 21.5487 3.85325 21.3538L20.8533 4.3538C21.0483 4.1588 21.0483 3.8417 20.8533 3.6467C20.7563 3.5497 20.6283 3.5007 20.5002 3.5007Z" fill="#C9C3AF"/>
<path d="M20.5002 3.5007C20.3722 3.5007 20.2442 3.5497 20.1462 3.6467L3.14625 20.6467C2.95125 20.8417 2.95125 21.1587 3.14625 21.3538C3.34125 21.5487 3.65825 21.5487 3.85325 21.3538L20.8533 4.3538C21.0483 4.1588 21.0483 3.8417 20.8533 3.6467C20.7563 3.5497 20.6283 3.5007 20.5002 3.5007Z" stroke="#C9C3AF"/>
</svg>
