<svg fill="none" height="141" viewBox="0 0 1376 141" width="1376" xmlns="http://www.w3.org/2000/svg"><g fill="#4b4b4b"><path d="m52.9118 82.1359 41.1536 56.3221v.391h-6.2711l-41.1536-56.5175h-40.95758v56.5175h-5.68312v-132.98214h49.3843c22.1446 0 40.3697 16.62274 40.3697 38.33004 0 19.3607-14.8936 36.179-36.8422 37.939zm-47.22868-5.0846h43.50528c19.9888 0 34.8825-14.6671 34.8825-32.6588 0-18.1872-15.0896-33.0499-34.6866-33.0499h-43.70118z"/><path d="m149.716 58.473c24.104 0 35.863 16.6227 35.863 38.3301 0 1.76-.196 3.7159-.392 5.6709h-69.178c.98 20.339 16.266 33.246 34.295 33.246 13.326 0 20.577-3.716 27.828-10.365l2.939 3.911c-7.643 7.041-16.853 11.734-30.963 11.734-23.712 0-39.586-18.187-39.586-41.2635 0-21.9029 14.698-41.2635 39.194-41.2635zm0 5.0846c-18.029 0-32.531 13.6893-33.707 34.0277h64.278c.392-19.9473-9.994-34.0277-30.571-34.0277z"/><path d="m277.598 0h5.488v138.849h-4.704l-.588-20.143c-5.879 13.103-18.225 21.707-34.882 21.707-24.104 0-38.998-18.969-38.998-40.8721 0-21.3162 14.502-40.4813 38.998-40.4813 16.265 0 29.395 8.8003 35.078 21.7074-.392-8.018-.392-13.8849-.392-21.3162zm-34.49 135.329c22.732 0 34.686-17.601 34.686-35.5925 0-18.1873-11.954-35.5923-34.686-35.5923-21.361 0-33.707 16.8184-33.707 35.5923 0 18.7735 12.738 35.5925 33.707 35.5925z"/><path d="m365.529 138.849v-132.98214h48.6c26.064 0 39.586 21.31624 39.586 39.50344 0 17.9917-12.738 38.1346-40.369 38.1346h-42.134v55.3441zm5.683-60.6243h42.134c20.968 0 34.686-14.276 34.686-32.8544 0-18.7739-14.306-34.0277-33.903-34.0277h-42.917z"/><path d="m479.73 31.2899c-2.743 0-4.899-2.1512-4.899-4.8891 0-2.7378 2.156-4.889 4.899-4.889 2.744 0 4.9 2.1512 4.9 4.889 0 2.9335-2.156 4.8891-4.9 4.8891zm-2.743 107.5591v-78.4204h5.487v78.4204z"/><path d="m553.631 59.0596c20.185 0 27.631 13.1027 27.631 31.8766v47.9128h-5.487v-47.5217c0-15.8405-4.507-27.1831-22.536-27.1831-16.462 0-30.767 10.5604-30.767 28.9432v45.7616h-5.488v-78.4204h4.704l.784 15.8405c3.723-7.8225 14.501-17.2095 31.159-17.2095z"/><path d="m646.721 58.473c24.104 0 35.862 16.6227 35.862 38.3301 0 1.76-.196 3.7159-.392 5.6709h-69.177c.98 20.339 16.266 33.246 34.295 33.246 13.326 0 20.576-3.716 27.827-10.365l2.94 3.911c-7.643 7.041-16.853 11.734-30.963 11.734-23.713 0-39.586-18.187-39.586-41.2635 0-21.9029 14.698-41.2635 39.194-41.2635zm0 5.0846c-18.029 0-32.531 13.6893-33.707 34.0277h64.278c.392-19.9473-9.994-34.0277-30.571-34.0277z"/><path d="m858.037 5.86686h5.683v133.96014h-2.351l-93.87-115.1862c-2.351-2.7379-4.115-4.8891-6.075-7.2358 0 2.7379.196 5.4757.196 8.4092v113.0348h-5.683v-133.95996h2.352l93.673 114.98996c2.156 2.738 4.115 5.085 6.075 7.432 0-3.325 0-6.454 0-9.778z"/><path d="m935.317 58.473c24.104 0 35.862 16.6227 35.862 38.3301 0 1.76-.196 3.7159-.392 5.6709h-69.177c.98 20.339 16.265 33.246 34.294 33.246 13.326 0 20.577-3.716 27.828-10.365l2.94 3.911c-7.643 7.041-16.854 11.734-30.964 11.734-23.712 0-39.585-18.187-39.585-41.2635 0-21.9029 14.697-41.2635 39.194-41.2635zm0 5.0846c-18.03 0-32.531 13.6893-33.707 34.0277h64.278c.392-19.9473-9.995-34.0277-30.571-34.0277z"/><path d="m1028.71 58.473c24.1 0 35.86 16.6227 35.86 38.3301 0 1.76-.2 3.7159-.39 5.6709h-69.178c.979 20.339 16.268 33.246 34.298 33.246 13.32 0 20.57-3.716 27.82-10.365l2.94 3.911c-7.64 7.041-16.85 11.734-30.96 11.734-23.71 0-39.586-18.187-39.586-41.2635 0-21.9029 14.696-41.2635 39.196-41.2635zm0 5.0846c-18.03 0-32.533 13.6893-33.708 34.0277h64.278c.39-19.9473-9.99-34.0277-30.57-34.0277z"/><path d="m1156.59 0h5.49v138.849h-4.71l-.58-20.143c-5.88 13.103-18.23 21.707-34.89 21.707-24.1 0-38.99-18.969-38.99-40.8721 0-21.3162 14.5-40.4813 38.99-40.4813 16.27 0 29.4 8.8003 35.08 21.7074-.39-8.018-.39-13.8849-.39-21.3162zm-34.49 135.329c22.73 0 34.69-17.601 34.69-35.5925 0-18.1873-11.96-35.5923-34.69-35.5923-21.36 0-33.71 16.8184-33.71 35.5923 0 18.7735 12.74 35.5925 33.71 35.5925z"/><path d="m1196.75 138.849v-138.849h5.49v138.849z"/><path d="m1268.69 58.473c24.11 0 35.87 16.6227 35.87 38.3301 0 1.76-.2 3.7159-.4 5.6709h-69.17c.98 20.339 16.26 33.246 34.29 33.246 13.33 0 20.58-3.716 27.83-10.365l2.94 3.911c-7.64 7.041-16.85 11.734-30.96 11.734-23.72 0-39.59-18.187-39.59-41.2635 0-21.9029 14.7-41.2635 39.19-41.2635zm0 5.0846c-18.02 0-32.53 13.6893-33.7 34.0277h64.28c.39-19.9473-10-34.0277-30.58-34.0277z"/><path d="m1350.52 140.413c-10.38 0-19.98-3.324-28.22-9.582l2.75-4.303c7.84 5.476 16.26 8.605 25.47 8.605 12.35 0 19.99-6.258 19.99-15.058 0-9.778-9.4-14.472-21.16-18.97-11.56-4.4975-24.5-9.9732-24.5-22.8803s12.35-19.1651 24.69-19.1651c8.82 0 16.86 2.9335 23.13 7.2358l-2.35 4.1068c-6.08-3.7156-12.94-6.258-20.58-6.258-9.99 0-19.4 4.3024-19.4 14.0805 0 9.5825 9.99 13.6893 20.97 17.9917 12.74 4.8886 24.69 10.9516 24.69 23.8586 0 11.929-10.97 20.338-25.48 20.338z"/></g></svg>